<mxfile host="drawio-plugin" modified="2022-03-15T19:11:47.900Z" agent="5.0 (Windows NT 6.2; Win64; x64) AppleWebKit/537.36 (KHTML, like Gecko) Chrome/89.0.4389.114 Safari/537.36" etag="O49a8ChJlpC8eXTVkd_c" version="15.5.4" type="embed"><diagram id="cwWtdqNpVdrY-klZLekN" name="Page-1"><mxGraphModel dx="482" dy="368" grid="1" gridSize="10" guides="1" tooltips="1" connect="1" arrows="1" fold="1" page="1" pageScale="1" pageWidth="850" pageHeight="1100" math="0" shadow="0"><root><mxCell id="0"/><mxCell id="1" parent="0"/><mxCell id="2" value="" style="whiteSpace=wrap;html=1;aspect=fixed;" vertex="1" parent="1"><mxGeometry x="60" y="70" width="80" height="80" as="geometry"/></mxCell><mxCell id="4" style="edgeStyle=orthogonalEdgeStyle;rounded=0;orthogonalLoop=1;jettySize=auto;html=1;" edge="1" parent="1" source="3" target="2"><mxGeometry relative="1" as="geometry"/></mxCell><mxCell id="3" value="" style="ellipse;whiteSpace=wrap;html=1;" vertex="1" parent="1"><mxGeometry x="40" y="230" width="120" height="80" as="geometry"/></mxCell></root></mxGraphModel></diagram></mxfile>